<svg height="512" viewBox="0 0 128 128" width="512" xmlns="http://www.w3.org/2000/svg"><g id="icon"><path d="m57.171 36.518h36.506a4.892 4.892 0 0 1 4.892 4.892v95.231a4.892 4.892 0 0 1 -4.892 4.892h-36.506a4.891 4.891 0 0 1 -4.891-4.891v-95.232a4.892 4.892 0 0 1 4.892-4.892z" fill="#dbe2eb" transform="matrix(.004 -1 1 .004 -13.886 164.112)"/><g opacity=".5"><path d="m122.953 112.353-95.238-.36a4.9 4.9 0 0 1 -4.844-4.391l97.676.37a2.749 2.749 0 0 0 2.758-2.723l.149-39.177a4.882 4.882 0 0 1 4.546 4.892l-.138 36.518a4.895 4.895 0 0 1 -4.909 4.871z" fill="#c1cdd3"/></g><path d="m57.858 65.814-29.958-.114a4.892 4.892 0 0 0 -4.91 4.873l-.138 36.5a4.892 4.892 0 0 0 4.873 4.91l29.962.114z" fill="#4fa4d1"/><path d="m57.767 112.106-29.973-.113a4.906 4.906 0 0 1 -4.872-4.908l.139-36.518a4.869 4.869 0 0 1 1.949-3.878l-.135 35.9a4.9 4.9 0 0 0 4.871 4.909l28.038.106z" fill="#477ea8"/><g fill="#bac2d3"><path d="m67.531 76.327 50.506.191"/><path d="m118.037 77.534-50.506-.191a1.016 1.016 0 0 1 0-2.032l50.506.191a1.016 1.016 0 0 1 0 2.032z"/><path d="m67.483 88.997 50.506.191"/><path d="m117.989 90.2-50.506-.191a1.016 1.016 0 0 1 0-2.032l50.506.192a1.016 1.016 0 0 1 0 2.031z"/><path d="m67.435 101.667 50.506.191"/><path d="m117.941 102.875-50.506-.192a1.016 1.016 0 0 1 0-2.032l50.505.192a1.016 1.016 0 0 1 0 2.032z"/></g><path d="m57.858 71.727a1.016 1.016 0 0 1 -1.016-1.016v-2.032a1.016 1.016 0 1 1 2.032 0v2.032a1.016 1.016 0 0 1 -1.016 1.016z" fill="#86be7a"/><path d="m57.858 104.289a1.016 1.016 0 0 1 -1.016-1.016v-4.073a1.016 1.016 0 1 1 2.032 0v4.07a1.016 1.016 0 0 1 -1.016 1.019zm0-8.14a1.016 1.016 0 0 1 -1.016-1.016v-4.071a1.016 1.016 0 0 1 2.032 0v4.071a1.016 1.016 0 0 1 -1.016 1.016zm0-8.141a1.016 1.016 0 0 1 -1.016-1.016v-4.07a1.016 1.016 0 0 1 2.032 0v4.07a1.016 1.016 0 0 1 -1.016 1.016zm0-8.14a1.016 1.016 0 0 1 -1.016-1.016v-4.071a1.016 1.016 0 0 1 2.032 0v4.071a1.016 1.016 0 0 1 -1.016 1.016z" fill="#477ea8"/><path d="m57.858 110.391a1.016 1.016 0 0 1 -1.016-1.016v-2.031a1.016 1.016 0 0 1 2.032 0v2.031a1.015 1.015 0 0 1 -1.016 1.016z" fill="#477ea8"/><path d="m51.026 74.688h-22.419a1.016 1.016 0 1 1 0-2.032h22.419a1.016 1.016 0 1 1 0 2.032z" fill="#86be7a"/><path d="m40.353 80.38h-11.746a1.016 1.016 0 1 1 0-2.031h11.746a1.016 1.016 0 1 1 0 2.031z" fill="#86be7a"/><path d="m33.444 102.311a1.331 1.331 0 0 1 -.983-.359c-2.52-2.519 9.082-14.178 9.2-14.3 3.069-3.069 7.413-6.882 9.7-4.6 2.285 2.284-1.531 6.629-4.6 9.7-.109.108-9.607 9.559-13.317 9.559zm16.17-17.886c-.634 0-2.388.539-6.517 4.668-4.354 4.354-7.808 9.008-8.763 10.986 1.979-.954 6.633-4.408 10.987-8.762 5.553-5.553 4.614-6.812 4.6-6.825a.528.528 0 0 0 -.307-.067z" fill="#86be7a"/><path d="m39.28 92.489a1.012 1.012 0 0 1 -.543-.158l-8.274-5.241a1.016 1.016 0 0 1 -.174-1.577l2.058-2.059a1.017 1.017 0 0 1 1.014-.253l10.276 3.127a1.015 1.015 0 1 1 -.591 1.943l-9.693-2.949-.73.731 7.2 4.562a1.016 1.016 0 0 1 -.544 1.874z" fill="#86be7a"/><path d="m33.788 99.953a1.006 1.006 0 0 1 -.549-.162l-4.57-2.941a1.016 1.016 0 0 1 -.169-1.573l1.107-1.107a1.016 1.016 0 0 1 1.013-.254l5.112 1.551a1.016 1.016 0 1 1 -.589 1.945l-3.5-1.061 2.69 1.732a1.016 1.016 0 0 1 -.55 1.87z" fill="#86be7a"/><path d="m6.358 40.5h95.231a4.892 4.892 0 0 1 4.892 4.892v36.503a4.891 4.891 0 0 1 -4.891 4.891h-95.232a4.892 4.892 0 0 1 -4.892-4.892v-36.505a4.892 4.892 0 0 1 4.892-4.889z" fill="#dbe2eb" transform="matrix(.802 -.598 .598 .802 -27.341 44.895)"/><g opacity=".25"><path d="m105.983 53.729-76.344 56.94a4.9 4.9 0 0 1 -6.511-.6l78.3-58.4a2.748 2.748 0 0 0 .572-3.83l-23.423-31.4a4.884 4.884 0 0 1 6.574 1.179l21.833 29.273a4.9 4.9 0 0 1 -1.001 6.838z" fill="#c1cdd3"/></g><path d="m25.985 55.644-24.018 17.913a4.893 4.893 0 0 0 -1 6.846l21.833 29.262a4.891 4.891 0 0 0 6.845 1l24.014-17.916z" fill="#a0ca8b"/><g opacity=".25"><path d="m53.729 92.7-24.029 17.922a4.9 4.9 0 0 1 -6.843-1l-21.831-29.27a4.87 4.87 0 0 1 -.772-4.271l21.462 28.776a4.9 4.9 0 0 0 6.843 1l22.476-16.767z" fill="#86be7a"/></g><path d="m40.034 58.235 40.486-30.196" fill="#bac2d3"/><path d="m40.035 59.25a1.015 1.015 0 0 1 -.608-1.83l40.486-30.195a1.016 1.016 0 0 1 1.214 1.629l-40.486 30.2a1.011 1.011 0 0 1 -.606.196z" fill="#bac2d3"/><path d="m47.609 68.391 40.486-30.196" fill="#bac2d3"/><path d="m47.61 69.407a1.016 1.016 0 0 1 -.61-1.831l40.487-30.195a1.016 1.016 0 1 1 1.213 1.629l-40.485 30.2a1.01 1.01 0 0 1 -.605.197z" fill="#bac2d3"/><path d="m55.184 78.548 40.486-30.196" fill="#bac2d3"/><path d="m55.185 79.563a1.016 1.016 0 0 1 -.609-1.83l40.487-30.2a1.016 1.016 0 0 1 1.214 1.629l-40.486 30.2a1.011 1.011 0 0 1 -.606.201z" fill="#bac2d3"/><path d="m28.929 60.573a1.013 1.013 0 0 1 -.813-.405l-1.216-1.624a1.016 1.016 0 1 1 1.623-1.221l1.221 1.624a1.015 1.015 0 0 1 -.81 1.626z" fill="#86be7a"/><path d="m48.494 86.6a1.017 1.017 0 0 1 -.813-.405l-2.446-3.254a1.016 1.016 0 0 1 1.625-1.221l2.446 3.254a1.016 1.016 0 0 1 -.2 1.422 1 1 0 0 1 -.612.204zm-4.894-6.5a1.014 1.014 0 0 1 -.812-.405l-2.447-3.254a1.016 1.016 0 1 1 1.623-1.221l2.447 3.254a1.015 1.015 0 0 1 -.2 1.422 1 1 0 0 1 -.611.204zm-4.892-6.507a1.017 1.017 0 0 1 -.813-.4l-2.446-3.254a1.016 1.016 0 0 1 1.625-1.221l2.446 3.253a1.017 1.017 0 0 1 -.812 1.627zm-4.892-6.507a1.017 1.017 0 0 1 -.813-.405l-2.445-3.254a1.016 1.016 0 0 1 1.628-1.227l2.445 3.253a1.017 1.017 0 0 1 -.812 1.627z" fill="#86be7a"/><path d="m52.162 91.479a1.016 1.016 0 0 1 -.813-.405l-1.221-1.624a1.016 1.016 0 1 1 1.623-1.221l1.221 1.624a1.016 1.016 0 0 1 -.81 1.626z" fill="#86be7a"/><path d="m7.325 80.517a1.016 1.016 0 0 1 -.611-1.828l17.921-13.471a1.016 1.016 0 1 1 1.22 1.624l-17.92 13.471a1.008 1.008 0 0 1 -.61.204z" fill="#86be7a"/><path d="m10.747 85.068a1.016 1.016 0 0 1 -.611-1.828l9.389-7.058a1.016 1.016 0 0 1 1.22 1.624l-9.389 7.058a1.012 1.012 0 0 1 -.609.204z" fill="#86be7a"/><path d="m29.021 96.932-.422.733c-.518.9-.91 1.134-1.044 1.134-.12-.015-.443-.29-.717-1.386l-.2-.816-5.411.4.21-1.562 4.988-1.842v-.7c0-1.348.057-2.83.17-4.409l.084-1.161-9.888.794.4-2.9 10.191-3.717.1-.568c1.024-5.758 2.512-6.617 3.308-6.617a1.534 1.534 0 0 1 .221.016c1.885.261 1.88 4.146 1.544 7.358l-.061.572 8.683 6.339-.4 2.9-9.225-3.474-.24 1.142c-.319 1.513-.685 2.987-1.059 4.263l-.2.673 4.284 3.138-.214 1.558-.015.016z" fill="#86be7a"/></g></svg>